<svg xmlns="http://www.w3.org/2000/svg" width="200" height="560" viewBox="0 0 200 560"><rect width="200" height="560" rx="18" fill="#fff8e7"/><rect x="7" y="7" width="186" height="546" rx="14" fill="none" stroke="#a52922" stroke-width="5"/><rect x="14" y="14" width="172" height="532" rx="10" fill="none" stroke="#d5a52f" stroke-width="3"/><text x="24" y="52" font-size="29" font-family="sans-serif" font-weight="bold" fill="#7d2c25">2</text><g transform="translate(25 78) scale(0.48)"><circle r="18" fill="#d6a52d" stroke="#8e301f" stroke-width="4"/><circle r="10" fill="#f6d873" stroke="#fff2b0" stroke-width="2"/><path d="M-7 0L0-7 7 0 0 7Z" fill="#a63226"/></g><g transform="translate(100 150) scale(1)"><circle r="18" fill="#d6a52d" stroke="#8e301f" stroke-width="4"/><circle r="10" fill="#f6d873" stroke="#fff2b0" stroke-width="2"/><path d="M-7 0L0-7 7 0 0 7Z" fill="#a63226"/></g><g transform="translate(55 240) scale(1)"><circle r="18" fill="#d6a52d" stroke="#8e301f" stroke-width="4"/><circle r="10" fill="#f6d873" stroke="#fff2b0" stroke-width="2"/><path d="M-7 0L0-7 7 0 0 7Z" fill="#a63226"/></g><g transform="rotate(180 100 280)"><text x="24" y="52" font-size="29" font-family="sans-serif" font-weight="bold" fill="#7d2c25">2</text><g transform="translate(25 78) scale(0.48)"><circle r="18" fill="#d6a52d" stroke="#8e301f" stroke-width="4"/><circle r="10" fill="#f6d873" stroke="#fff2b0" stroke-width="2"/><path d="M-7 0L0-7 7 0 0 7Z" fill="#a63226"/></g></g></svg>