<svg xmlns="http://www.w3.org/2000/svg" width="200" height="560" viewBox="0 0 200 560"><rect width="200" height="560" rx="18" fill="#fff8e7"/><rect x="7" y="7" width="186" height="546" rx="14" fill="none" stroke="#a52922" stroke-width="5"/><rect x="14" y="14" width="172" height="532" rx="10" fill="none" stroke="#d5a52f" stroke-width="3"/><text x="24" y="52" font-size="29" font-family="sans-serif" font-weight="bold" fill="#7d2c25">6</text><g transform="translate(25 78) rotate(22) scale(0.48)"><path d="M-5 29Q-10 0 5-29" stroke="#76502f" stroke-width="11"/><path d="M0 8L-17-3M2-7L18-18" stroke="#477a43" stroke-width="6"/><circle cy="-26" r="7" fill="#9d6738"/></g><g transform="translate(100 150) rotate(22) scale(0.8)"><path d="M-5 29Q-10 0 5-29" stroke="#76502f" stroke-width="11"/><path d="M0 8L-17-3M2-7L18-18" stroke="#477a43" stroke-width="6"/><circle cy="-26" r="7" fill="#9d6738"/></g><g transform="translate(55 240) rotate(22) scale(0.8)"><path d="M-5 29Q-10 0 5-29" stroke="#76502f" stroke-width="11"/><path d="M0 8L-17-3M2-7L18-18" stroke="#477a43" stroke-width="6"/><circle cy="-26" r="7" fill="#9d6738"/></g><g transform="translate(145 240) rotate(22) scale(0.8)"><path d="M-5 29Q-10 0 5-29" stroke="#76502f" stroke-width="11"/><path d="M0 8L-17-3M2-7L18-18" stroke="#477a43" stroke-width="6"/><circle cy="-26" r="7" fill="#9d6738"/></g><g transform="translate(55 340) rotate(22) scale(0.8)"><path d="M-5 29Q-10 0 5-29" stroke="#76502f" stroke-width="11"/><path d="M0 8L-17-3M2-7L18-18" stroke="#477a43" stroke-width="6"/><circle cy="-26" r="7" fill="#9d6738"/></g><g transform="translate(145 340) rotate(22) scale(0.8)"><path d="M-5 29Q-10 0 5-29" stroke="#76502f" stroke-width="11"/><path d="M0 8L-17-3M2-7L18-18" stroke="#477a43" stroke-width="6"/><circle cy="-26" r="7" fill="#9d6738"/></g><g transform="translate(55 440) rotate(22) scale(0.8)"><path d="M-5 29Q-10 0 5-29" stroke="#76502f" stroke-width="11"/><path d="M0 8L-17-3M2-7L18-18" stroke="#477a43" stroke-width="6"/><circle cy="-26" r="7" fill="#9d6738"/></g><g transform="rotate(180 100 280)"><text x="24" y="52" font-size="29" font-family="sans-serif" font-weight="bold" fill="#7d2c25">6</text><g transform="translate(25 78) rotate(22) scale(0.48)"><path d="M-5 29Q-10 0 5-29" stroke="#76502f" stroke-width="11"/><path d="M0 8L-17-3M2-7L18-18" stroke="#477a43" stroke-width="6"/><circle cy="-26" r="7" fill="#9d6738"/></g></g></svg>